<svg width="18" height="16" viewBox="0 0 18 16" fill="none" xmlns="http://www.w3.org/2000/svg">
<path d="M16.3261 8.50615C16.5296 8.33178 16.6313 8.2446 16.6686 8.14085C16.7013 8.04979 16.7013 7.95018 16.6686 7.85912C16.6313 7.75537 16.5296 7.66818 16.3261 7.49381L9.26719 1.44329C8.917 1.14313 8.74191 0.993048 8.59367 0.989371C8.46483 0.986175 8.34177 1.04278 8.26035 1.14267C8.16667 1.25762 8.16667 1.48824 8.16667 1.94946V5.52884C6.38777 5.84006 4.75966 6.74145 3.54976 8.09487C2.23069 9.57041 1.50103 11.4799 1.5 13.4591V13.9691C2.37445 12.9157 3.46626 12.0637 4.70063 11.4716C5.78891 10.9495 6.96535 10.6402 8.16667 10.5588V14.0505C8.16667 14.5117 8.16667 14.7423 8.26035 14.8573C8.34177 14.9572 8.46483 15.0138 8.59367 15.0106C8.74191 15.0069 8.917 14.8568 9.26719 14.5567L16.3261 8.50615Z" stroke="#98A2B3" stroke-width="1.66667" stroke-linecap="round" stroke-linejoin="round"/>
</svg>
